<?xml version="1.0" standalone="no"?>
<!DOCTYPE svg PUBLIC "-//W3C//DTD SVG 20010904//EN"
 "http://www.w3.org/TR/2001/REC-SVG-20010904/DTD/svg10.dtd">
<svg version="1.0" xmlns="http://www.w3.org/2000/svg"
 width="600.000000pt" height="600.000000pt" viewBox="0 0 600.000000 600.000000"
 preserveAspectRatio="xMidYMid meet">
<metadata>
Created by potrace 1.11, written by Peter Selinger 2001-2013
</metadata>
<g transform="translate(0.000000,600.000000) scale(0.100000,-0.100000)"
fill="#000000" stroke="none">
<path d="M1840 5645 c-58 -18 -222 -68 -365 -110 -143 -42 -287 -85 -320 -95
-33 -11 -107 -33 -165 -50 -58 -17 -148 -44 -200 -60 -52 -16 -123 -37 -157
-46 -35 -10 -63 -21 -63 -27 0 -5 49 -82 108 -170 101 -151 116 -180 128 -247
8 -40 72 -347 95 -447 l20 -92 56 20 c31 10 57 18 58 17 1 -2 18 -61 38 -131
l37 -128 102 -125 c196 -240 170 -188 247 -487 l39 -149 -57 -131 c-394 -910
-414 -953 -458 -983 -44 -30 -48 -37 -138 -229 -25 -55 -58 -113 -73 -128
l-27 -29 59 -54 58 -53 -78 -37 c-119 -56 -187 -79 -203 -70 -5 4 -12 20 -16
36 -4 17 -8 30 -11 30 -15 0 -198 -98 -248 -133 -34 -23 -73 -49 -88 -56 -15
-8 -37 -24 -48 -37 l-22 -22 84 -125 84 -125 24 18 c29 22 37 18 81 -51 28
-44 32 -59 35 -141 3 -56 10 -101 19 -114 7 -12 85 -90 171 -175 87 -85 209
-205 273 -267 90 -88 117 -110 123 -98 10 17 -19 169 -61 326 -16 58 -32 143
-35 189 -4 46 -9 88 -12 93 -4 5 3 16 14 24 24 16 20 41 -10 62 -45 33 -23 35
168 19 18 -2 20 2 23 44 1 18 7 20 59 18 69 -2 110 -18 165 -62 23 -19 52 -40
65 -46 27 -14 134 -9 287 14 17 2 53 7 80 10 28 4 79 11 115 16 36 6 88 13
115 16 28 3 53 7 56 9 3 1 34 6 70 10 35 3 68 10 72 14 18 16 -92 79 -286 165
-21 9 -50 22 -65 28 -15 7 -52 28 -82 48 -30 20 -67 43 -82 53 -16 9 -28 24
-28 34 0 29 -19 42 -46 32 -13 -5 -24 -7 -24 -5 0 19 46 71 97 108 56 42 63
51 83 114 13 37 26 70 30 73 5 3 115 109 246 236 132 127 271 262 309 299 39
37 172 166 298 288 l228 220 -6 39 c-8 55 -89 380 -126 506 -121 415 -269 788
-490 1236 -21 44 -39 83 -39 87 0 4 17 13 38 19 52 16 222 81 222 85 0 3 -277
486 -434 755 -14 25 -41 71 -59 102 -17 32 -36 57 -42 57 -5 0 -57 -16 -115
-34z"/>
<path d="M4439 5437 c-8 -159 -47 -303 -114 -425 -50 -91 -85 -134 -231 -285
-325 -338 -487 -586 -641 -982 -29 -77 -60 -156 -68 -175 -35 -83 -139 -400
-134 -404 2 -1 51 -12 109 -25 158 -34 287 -80 470 -168 91 -44 192 -90 225
-102 33 -13 67 -26 75 -30 8 -4 56 -18 105 -30 50 -12 101 -25 114 -29 22 -6
35 -40 126 -312 117 -351 135 -394 254 -624 49 -94 127 -245 174 -336 99 -190
129 -274 126 -339 -3 -46 -33 -140 -62 -198 -22 -41 -123 -188 -139 -200 -7
-5 -55 -27 -106 -48 -102 -42 -124 -62 -113 -103 l8 -27 164 -1 c166 0 267 11
305 36 26 16 35 31 95 150 27 52 54 102 61 110 45 53 112 76 136 47 19 -22 32
-104 35 -212 2 -101 3 -105 25 -105 20 0 22 5 23 58 1 31 2 71 4 87 2 17 4 50
6 75 1 25 17 82 34 128 61 159 46 243 -66 366 -46 51 -64 82 -108 191 l-53
131 145 146 c136 136 146 149 152 192 4 26 3 63 -3 84 -47 162 -58 212 -56
245 4 41 37 97 58 97 24 0 104 -61 180 -137 69 -69 78 -75 92 -61 13 13 13 17
2 29 -94 98 -173 212 -198 285 -41 118 -100 174 -218 204 -23 6 -41 14 -38 18
2 4 7 28 11 52 9 64 41 198 59 247 38 109 91 348 121 558 4 22 8 50 10 61 2
12 6 48 10 80 4 33 9 70 11 84 12 74 18 202 17 340 -1 85 -3 339 -5 564 l-4
409 -174 44 c-96 23 -184 45 -195 47 -11 3 -159 39 -330 81 -170 42 -339 83
-375 91 -36 8 -75 19 -87 24 -17 7 -23 6 -24 -3z m780 -3174 c29 -60 36 -88
65 -256 l13 -79 -36 -75 -37 -76 -27 79 c-35 102 -37 125 -40 336 -2 200 -1
202 62 71z"/>
</g>
</svg>
