<?xml version="1.0" encoding="utf-8"?>
<!-- Generator: Adobe Illustrator 19.0.0, SVG Export Plug-In . SVG Version: 6.00 Build 0)  -->
<svg version="1.1" id="Layer_1" xmlns="http://www.w3.org/2000/svg" xmlns:xlink="http://www.w3.org/1999/xlink" x="0px" y="0px"
	 viewBox="-255 25 448 512" style="enable-background:new -255 25 448 512;" xml:space="preserve">
<style type="text/css">
	.st0{fill:#2E6D74;}
	.st1{fill:#D99151;}
	.st2{display:none;fill:#2E6D74;}
	.st3{display:none;fill:#D99151;}
</style>
<g>
	<path class="st0" d="M145,89H97V37c0-6.6-5.4-12-12-12H45c-6.6,0-12,5.4-12,12v52H-95V37c0-6.6-5.4-12-12-12h-40
		c-6.6,0-12,5.4-12,12v52h-48c-26.5,0-48,21.5-48,48v352c0,26.5,21.5,48,48,48h352c26.5,0,48-21.5,48-48V137
		C193,110.5,171.5,89,145,89z M139,489h-340c-3.3,0-6-2.7-6-6V185h352v298C145,486.3,142.3,489,139,489z M86.2,288.4L-56.2,429.5
		c-4.7,4.7-12.3,4.6-17-0.1l-75.1-75.7c-4.7-4.7-4.6-12.3,0.1-17l22.7-22.5c4.7-4.7,12.3-4.6,17,0.1l44.1,44.5L46.7,248.6
		c4.7-4.7,12.3-4.6,17,0.1l22.5,22.7C90.9,276.1,90.9,283.7,86.2,288.4L86.2,288.4z"/>
	<path class="st1" d="M86.2,288.4L-56.2,429.5c-4.7,4.7-12.3,4.6-17-0.1l-75.1-75.7c-4.7-4.7-4.6-12.3,0.1-17l22.7-22.5
		c4.7-4.7,12.3-4.6,17,0.1l44.1,44.5L46.7,248.6c4.7-4.7,12.3-4.6,17,0.1l22.5,22.7C90.9,276.1,90.9,283.7,86.2,288.4L86.2,288.4z"
		/>
</g>
<path class="st2" d="M-48.1,460.3c-126.1-182.8-149.5-201.5-149.5-268.7C-197.6,99.6-123,25-31,25s166.6,74.6,166.6,166.6
	c0,67.2-23.4,85.9-149.5,268.7C-22.2,472.2-39.8,472.2-48.1,460.3L-48.1,460.3z M-31,261c38.3,0,69.4-31.1,69.4-69.4
	S7.3,122.2-31,122.2s-69.4,31.1-69.4,69.4S-69.3,261-31,261z"/>
<ellipse class="st3" cx="-31" cy="511.5" rx="69.4" ry="25.5"/>
</svg>
